<svg width="24" height="25" viewBox="0 0 24 25" fill="none" xmlns="http://www.w3.org/2000/svg">
<g id="call">
<mask id="mask0_524_2764" style="mask-type:alpha" maskUnits="userSpaceOnUse" x="0" y="0" width="24" height="25">
<rect id="Bounding box" y="0.614502" width="24" height="24" fill="#D9D9D9"/>
</mask>
<g mask="url(#mask0_524_2764)">
<path id="call_2" d="M19.95 21.6145C17.8667 21.6145 15.8083 21.1603 13.775 20.252C11.7417 19.3437 9.89167 18.0562 8.225 16.3895C6.55833 14.7228 5.27083 12.8728 4.3625 10.8395C3.45417 8.80617 3 6.74784 3 4.6645C3 4.3645 3.1 4.1145 3.3 3.9145C3.5 3.7145 3.75 3.6145 4.05 3.6145H8.1C8.33333 3.6145 8.54167 3.69367 8.725 3.852C8.90833 4.01034 9.01667 4.19784 9.05 4.4145L9.7 7.9145C9.73333 8.18117 9.725 8.40617 9.675 8.5895C9.625 8.77284 9.53333 8.93117 9.4 9.0645L6.975 11.5145C7.30833 12.1312 7.70417 12.727 8.1625 13.302C8.62083 13.877 9.125 14.4312 9.675 14.9645C10.1917 15.4812 10.7333 15.9603 11.3 16.402C11.8667 16.8437 12.4667 17.2478 13.1 17.6145L15.45 15.2645C15.6 15.1145 15.7958 15.002 16.0375 14.927C16.2792 14.852 16.5167 14.8312 16.75 14.8645L20.2 15.5645C20.4333 15.6312 20.625 15.752 20.775 15.927C20.925 16.102 21 16.2978 21 16.5145V20.5645C21 20.8645 20.9 21.1145 20.7 21.3145C20.5 21.5145 20.25 21.6145 19.95 21.6145ZM6.025 9.6145L7.675 7.9645L7.25 5.6145H5.025C5.10833 6.29784 5.225 6.97284 5.375 7.6395C5.525 8.30617 5.74167 8.9645 6.025 9.6145ZM14.975 18.5645C15.625 18.8478 16.2875 19.0728 16.9625 19.2395C17.6375 19.4062 18.3167 19.5145 19 19.5645V17.3645L16.65 16.8895L14.975 18.5645Z" fill="#0F4C83"/>
</g>
</g>
</svg>
