<svg width="25" height="25" viewBox="0 0 25 25" fill="none" xmlns="http://www.w3.org/2000/svg">
<g id="app_badging">
<mask id="mask0_525_854" style="mask-type:alpha" maskUnits="userSpaceOnUse" x="0" y="0" width="25" height="25">
<rect id="Bounding box" x="0.166016" y="0.614502" width="24" height="24" fill="#D9D9D9"/>
</mask>
<g mask="url(#mask0_525_854)">
<path id="app_badging_2" d="M2.16602 12.6145C2.16602 11.1478 2.44935 9.78949 3.01602 8.53949C3.58268 7.28949 4.35768 6.20616 5.34102 5.28949C6.32435 4.37282 7.45768 3.67699 8.74102 3.20199C10.0243 2.72699 11.3993 2.53949 12.866 2.63949C13.1493 2.67282 13.3743 2.79366 13.541 3.00199C13.7077 3.21032 13.766 3.45616 13.716 3.73949C13.666 4.02282 13.5285 4.24782 13.3035 4.41449C13.0785 4.58116 12.8243 4.65616 12.541 4.63949C11.391 4.58949 10.3118 4.75199 9.30352 5.12699C8.29518 5.50199 7.40768 6.05616 6.64102 6.78949C5.87435 7.52282 5.27018 8.38532 4.82852 9.37699C4.38685 10.3687 4.16602 11.4478 4.16602 12.6145C4.16602 14.8478 4.94102 16.7395 6.49102 18.2895C8.04102 19.8395 9.93268 20.6145 12.166 20.6145C13.316 20.6145 14.3868 20.3937 15.3785 19.952C16.3702 19.5103 17.2327 18.9062 17.966 18.1395C18.7327 17.3395 19.2993 16.4312 19.666 15.4145C20.0327 14.3978 20.191 13.3395 20.141 12.2395C20.1243 11.9562 20.1994 11.702 20.366 11.477C20.5327 11.252 20.7577 11.1145 21.041 11.0645C21.3243 11.0145 21.5702 11.0728 21.7785 11.2395C21.9869 11.4062 22.1077 11.6312 22.141 11.9145C22.241 13.3645 22.0535 14.7312 21.5785 16.0145C21.1035 17.2978 20.416 18.4312 19.516 19.4145C18.566 20.4478 17.4577 21.2395 16.191 21.7895C14.9243 22.3395 13.5827 22.6145 12.166 22.6145C10.7827 22.6145 9.48268 22.352 8.26602 21.827C7.04935 21.302 5.99102 20.5895 5.09102 19.6895C4.19102 18.7895 3.47852 17.7312 2.95352 16.5145C2.42852 15.2978 2.16602 13.9978 2.16602 12.6145ZM18.166 9.61449C17.3327 9.61449 16.6243 9.32282 16.041 8.73949C15.4577 8.15616 15.166 7.44782 15.166 6.61449C15.166 5.78116 15.4577 5.07282 16.041 4.48949C16.6243 3.90616 17.3327 3.61449 18.166 3.61449C18.9993 3.61449 19.7077 3.90616 20.291 4.48949C20.8743 5.07282 21.166 5.78116 21.166 6.61449C21.166 7.44782 20.8743 8.15616 20.291 8.73949C19.7077 9.32282 18.9993 9.61449 18.166 9.61449Z" fill="#0F4C83"/>
</g>
</g>
</svg>
