<svg width="25" height="25" viewBox="0 0 25 25" fill="none" xmlns="http://www.w3.org/2000/svg">
<mask id="mask0_525_855" style="mask-type:alpha" maskUnits="userSpaceOnUse" x="0" y="0" width="25" height="25">
<rect x="0.5" y="0.614502" width="24" height="24" fill="#D9D9D9"/>
</mask>
<g mask="url(#mask0_525_855)">
<path d="M2.5 12.6145C2.5 11.1478 2.78333 9.78949 3.35 8.53949C3.91667 7.28949 4.69167 6.20616 5.675 5.28949C6.65833 4.37282 7.79167 3.67699 9.075 3.20199C10.3583 2.72699 11.7333 2.53949 13.2 2.63949C13.4833 2.67282 13.7083 2.79366 13.875 3.00199C14.0417 3.21032 14.1 3.45616 14.05 3.73949C14 4.02282 13.8625 4.24782 13.6375 4.41449C13.4125 4.58116 13.1583 4.65616 12.875 4.63949C11.725 4.58949 10.6458 4.75199 9.6375 5.12699C8.62917 5.50199 7.74167 6.05616 6.975 6.78949C6.20833 7.52282 5.60417 8.38532 5.1625 9.37699C4.72083 10.3687 4.5 11.4478 4.5 12.6145C4.5 14.8478 5.275 16.7395 6.825 18.2895C8.375 19.8395 10.2667 20.6145 12.5 20.6145C13.65 20.6145 14.7208 20.3937 15.7125 19.952C16.7042 19.5103 17.5667 18.9062 18.3 18.1395C19.0667 17.3395 19.6333 16.4312 20 15.4145C20.3667 14.3978 20.525 13.3395 20.475 12.2395C20.4583 11.9562 20.5333 11.702 20.7 11.477C20.8667 11.252 21.0917 11.1145 21.375 11.0645C21.6583 11.0145 21.9042 11.0728 22.1125 11.2395C22.3208 11.4062 22.4417 11.6312 22.475 11.9145C22.575 13.3645 22.3875 14.7312 21.9125 16.0145C21.4375 17.2978 20.75 18.4312 19.85 19.4145C18.9 20.4478 17.7917 21.2395 16.525 21.7895C15.2583 22.3395 13.9167 22.6145 12.5 22.6145C11.1167 22.6145 9.81667 22.352 8.6 21.827C7.38333 21.302 6.325 20.5895 5.425 19.6895C4.525 18.7895 3.8125 17.7312 3.2875 16.5145C2.7625 15.2978 2.5 13.9978 2.5 12.6145ZM18.5 9.61449C17.6667 9.61449 16.9583 9.32282 16.375 8.73949C15.7917 8.15616 15.5 7.44782 15.5 6.61449C15.5 5.78116 15.7917 5.07282 16.375 4.48949C16.9583 3.90616 17.6667 3.61449 18.5 3.61449C19.3333 3.61449 20.0417 3.90616 20.625 4.48949C21.2083 5.07282 21.5 5.78116 21.5 6.61449C21.5 7.44782 21.2083 8.15616 20.625 8.73949C20.0417 9.32282 19.3333 9.61449 18.5 9.61449Z" fill="#FBF4E4"/>
</g>
</svg>
