<svg width="25" height="25" viewBox="0 0 25 25" fill="none" xmlns="http://www.w3.org/2000/svg">
<g id="Facebook_official_page" clip-path="url(#clip0_524_2394)">
<g id="Logo">
<path id="Initiator" d="M24.2637 12.8853C24.2637 6.25789 18.891 0.885254 12.2637 0.885254C5.63631 0.885254 0.263672 6.25789 0.263672 12.8853C0.263672 18.5128 4.13823 23.235 9.36495 24.532V16.5525H6.89055V12.8853H9.36495V11.3051C9.36495 7.22077 11.2134 5.32765 15.2234 5.32765C15.9837 5.32765 17.2955 5.47693 17.8322 5.62573V8.94973C17.549 8.91997 17.057 8.90509 16.4459 8.90509C14.4784 8.90509 13.7181 9.65053 13.7181 11.5883V12.8853H17.6378L16.9643 16.5525H13.7181V24.7974C19.66 24.0798 24.2642 19.0206 24.2642 12.8853H24.2637Z" fill="#FBF4E4"/>
</g>
</g>
<defs>
<clipPath id="clip0_524_2394">
<rect width="24" height="24" fill="white" transform="translate(0.263672 0.885254)"/>
</clipPath>
</defs>
</svg>
