<svg width="163" height="116" viewBox="0 0 163 116" fill="none" xmlns="http://www.w3.org/2000/svg">
<rect width="163" height="116" fill="#D1D1D1"/>
<g id="Page designs">
<path d="M-120 -4466C-120 -4467.11 -119.105 -4468 -118 -4468H33758C33759.1 -4468 33760 -4467.1 33760 -4466V11767.6C33760 11768.7 33759.1 11769.6 33758 11769.6H-118.001C-119.105 11769.6 -120 11768.7 -120 11767.6V-4466Z" fill="#DADADA"/>
<path d="M-118 -4467H33758V-4469H-118V-4467ZM33759 -4466V11767.6H33761V-4466H33759ZM33758 11768.6H-118.001V11770.6H33758V11768.6ZM-119 11767.6V-4466H-121V11767.6H-119ZM-118.001 11768.6C-118.553 11768.6 -119 11768.2 -119 11767.6H-121C-121 11769.3 -119.658 11770.6 -118.001 11770.6V11768.6ZM33759 11767.6C33759 11768.2 33758.6 11768.6 33758 11768.6V11770.6C33759.7 11770.6 33761 11769.3 33761 11767.6H33759ZM33758 -4467C33758.6 -4467 33759 -4466.55 33759 -4466H33761C33761 -4467.66 33759.7 -4469 33758 -4469V-4467ZM-118 -4469C-119.657 -4469 -121 -4467.66 -121 -4466H-119C-119 -4466.55 -118.553 -4467 -118 -4467V-4469Z" fill="white" fill-opacity="0.1"/>
<g id="Homepage" clip-path="url(#clip0_1_13)">
<rect width="1440" height="4715.12" transform="translate(-40 -4388)" fill="white"/>
<g id="Frame 2383">
<g id="Footer">
<rect width="1440" height="365.271" transform="translate(-40 -38.155)" fill="#0F4C83"/>
<g id="Info and links">
<g id="Frame 2378">
<g id="Group 1182">
<path id="Vector" d="M22.3096 111.295C22.7196 111.075 23.0496 110.745 23.2796 110.335C23.5096 109.925 23.6196 109.455 23.6196 108.935C23.6196 108.415 23.5096 107.945 23.2796 107.535C23.0496 107.125 22.7296 106.795 22.3096 106.575C21.8996 106.355 21.4296 106.245 20.9096 106.245H17.3496V115.025H19.2296V111.635H20.2896L21.9996 115.025H24.1996L22.2496 111.335C22.2496 111.335 22.2896 111.315 22.2996 111.305L22.3096 111.295ZM20.9496 109.805H19.2296V108.075H20.9496C21.0896 108.075 21.2196 108.105 21.3196 108.175C21.4196 108.235 21.4996 108.335 21.5596 108.455C21.6196 108.595 21.6596 108.755 21.6596 108.945C21.6596 109.135 21.6296 109.295 21.5596 109.435C21.4996 109.555 21.4196 109.655 21.3196 109.715C21.2196 109.775 21.0896 109.815 20.9496 109.815V109.805Z" fill="#FBF4E4"/>
<path id="Vector_2" d="M26.9697 115.015H32.8698V113.195H28.8497V111.575H32.2697V109.745H28.8497V108.075H32.8698V106.245H26.9697V115.015Z" fill="#FBF4E4"/>
<path id="Vector_3" d="M38.6703 111.775H40.3004C40.3004 112.095 40.2403 112.365 40.1303 112.585C40.0303 112.795 39.8803 112.965 39.7003 113.075C39.3203 113.305 38.7103 113.295 38.3203 113.075C38.1303 112.965 37.9803 112.815 37.8803 112.625C37.7703 112.425 37.7203 112.175 37.7203 111.895V109.535C37.7203 109.215 37.7803 108.935 37.8903 108.705C37.9903 108.485 38.1403 108.315 38.3303 108.195C38.6403 107.995 39.0904 107.945 39.5004 108.135C39.6604 108.215 39.8004 108.325 39.9304 108.475C40.0504 108.625 40.1403 108.805 40.2003 109.065L40.2603 109.305H41.8503L42.2203 109.225L42.1503 108.845C42.0503 108.325 41.8504 107.845 41.5604 107.445C41.2704 107.035 40.8903 106.715 40.4503 106.495C39.4803 106.005 38.2203 106.065 37.3403 106.585C36.8503 106.865 36.4703 107.275 36.2103 107.785C35.9503 108.285 35.8203 108.875 35.8203 109.525V111.885C35.8203 112.505 35.9503 113.065 36.2203 113.555C36.4903 114.045 36.8704 114.425 37.3704 114.695C37.8504 114.955 38.4103 115.095 39.0403 115.095C39.6703 115.095 40.2303 114.955 40.7103 114.675C41.2003 114.395 41.5803 113.985 41.8403 113.465C42.1003 112.955 42.2303 112.375 42.2303 111.715V109.935H38.6903V111.765L38.6703 111.775Z" fill="#FBF4E4"/>
<path id="Vector_4" d="M47.4103 106.245H45.5303V115.015H47.4103V106.245Z" fill="#FBF4E4"/>
<path id="Vector_5" d="M55.59 106.586C54.63 106.036 53.2199 106.036 52.2599 106.586C51.7699 106.866 51.39 107.266 51.12 107.776C50.86 108.276 50.73 108.856 50.73 109.506V111.776C50.73 112.426 50.86 113.006 51.12 113.506C51.39 114.016 51.7699 114.416 52.2599 114.696C52.7399 114.976 53.3 115.116 53.93 115.116C54.56 115.116 55.11 114.976 55.6 114.696C56.09 114.416 56.47 114.016 56.74 113.506C57 113.006 57.1299 112.426 57.1299 111.776V109.506C57.1299 108.856 57 108.276 56.74 107.776C56.47 107.266 56.09 106.866 55.6 106.586H55.59ZM55.21 109.456V111.806C55.21 112.106 55.15 112.366 55.04 112.586C54.94 112.796 54.79 112.956 54.6 113.066C54.22 113.296 53.62 113.296 53.24 113.066C53.05 112.956 52.91 112.796 52.8 112.586C52.69 112.366 52.6299 112.106 52.6299 111.806V109.456C52.6299 109.156 52.69 108.896 52.8 108.676C52.9 108.466 53.05 108.306 53.24 108.196C53.43 108.086 53.66 108.026 53.92 108.026C54.18 108.026 54.41 108.086 54.6 108.196C54.79 108.306 54.93 108.466 55.04 108.676C55.15 108.896 55.21 109.156 55.21 109.456Z" fill="#FBF4E4"/>
<path id="Vector_6" d="M65.24 111.305L62.05 106.245H60.4399V115.015H62.31V110.035L65.5 115.015H67.12V106.245H65.24V111.305Z" fill="#FBF4E4"/>
<path id="Vector_7" d="M72.8999 106.245L69.6699 115.015H71.6999L72.2999 113.255H74.9899L75.5899 115.015H77.6199L74.3899 106.245H72.8999ZM72.9199 111.435L73.6399 109.345L74.3599 111.435H72.9199Z" fill="#FBF4E4"/>
<path id="Vector_8" d="M82.0499 106.245H80.1699V115.015H86.0699V113.195H82.0499V106.245Z" fill="#FBF4E4"/>
<path id="Vector_9" d="M97.39 112.015L97.33 112.255C97.27 112.465 97.18 112.655 97.06 112.805C96.93 112.955 96.79 113.065 96.62 113.145C96.22 113.325 95.75 113.285 95.43 113.085C95.25 112.965 95.1 112.795 95 112.575C94.89 112.345 94.83 112.065 94.83 111.745V109.545C94.83 109.225 94.89 108.945 95 108.715C95.1 108.495 95.2499 108.325 95.4399 108.205C95.7499 108.005 96.21 107.955 96.61 108.145C96.78 108.225 96.93 108.345 97.06 108.505C97.19 108.665 97.28 108.835 97.35 109.085L97.42 109.315H98.9399L99.31 109.235L99.24 108.855C99.14 108.325 98.94 107.855 98.65 107.455C98.36 107.045 97.98 106.725 97.55 106.505C96.59 106.015 95.33 106.075 94.45 106.595C93.97 106.875 93.59 107.285 93.33 107.795C93.07 108.295 92.9399 108.885 92.9399 109.535V111.735C92.9399 112.385 93.07 112.975 93.33 113.475C93.59 113.995 93.97 114.395 94.45 114.675C94.93 114.955 95.48 115.095 96.1 115.095C96.61 115.095 97.1 114.985 97.53 114.755C97.97 114.535 98.34 114.215 98.64 113.805C98.93 113.405 99.13 112.925 99.25 112.325L99.3199 111.955H97.66L97.4 112.005L97.39 112.015Z" fill="#FBF4E4"/>
<path id="Vector_10" d="M102.32 115.015H108.23V113.195H104.21V111.575H107.62V109.745H104.21V108.075H108.23V106.245H102.32V115.015Z" fill="#FBF4E4"/>
<path id="Vector_11" d="M116.14 111.305L112.94 106.245H111.33V115.015H113.2V110.035L116.39 115.015H118.01V106.245H116.14V111.305Z" fill="#FBF4E4"/>
<path id="Vector_12" d="M120.39 108.075H122.65V115.015H124.54V108.075H126.8V106.245H120.39V108.075Z" fill="#FBF4E4"/>
<path id="Vector_13" d="M129.18 115.015H135.09V113.195H131.07V111.575H134.48V109.745H131.07V108.075H135.09V106.245H129.18V115.015Z" fill="#FBF4E4"/>
<path id="Vector_14" d="M143.14 111.295C143.55 111.065 143.88 110.745 144.11 110.335C144.34 109.925 144.45 109.455 144.45 108.935C144.45 108.415 144.34 107.945 144.11 107.535C143.88 107.125 143.56 106.795 143.14 106.575C142.73 106.355 142.26 106.245 141.74 106.245H138.18V115.025H140.06V111.635H141.12L142.83 115.025H145.03L143.08 111.335C143.08 111.335 143.12 111.315 143.13 111.305L143.14 111.295ZM142.4 109.425C142.34 109.545 142.26 109.645 142.16 109.705C142.06 109.765 141.93 109.805 141.79 109.805H140.07V108.075H141.79C141.93 108.075 142.06 108.105 142.16 108.175C142.26 108.235 142.34 108.335 142.4 108.455C142.47 108.595 142.5 108.755 142.5 108.945C142.5 109.135 142.47 109.295 142.4 109.435V109.425Z" fill="#FBF4E4"/>
<path id="Vector_15" d="M18.84 73.4547L18.88 73.7447L19 73.9347C19.57 74.8047 19.85 75.7647 19.85 76.8047V84.3347H5.29999V76.8047C5.29999 75.7647 5.58001 74.7947 6.17001 73.8547L6.29001 73.6747V72.2747H0.0100098V73.4547L0.0499878 73.7447L0.170013 73.9347C0.740013 74.8047 1.01999 75.7647 1.01999 76.8047V93.3347C1.01999 94.3747 0.729995 95.3347 0.119995 96.2747L0 96.4647V97.8347H6.28V96.6847L6.23999 96.4047L6.12 96.2247C5.56999 95.3547 5.29001 94.3847 5.29001 93.3447V87.2747H19.84V93.3447C19.84 94.3847 19.55 95.3447 18.94 96.2847L18.82 96.4747V97.8447H25.1V96.6947L25.06 96.4147L24.94 96.2347C24.39 95.3647 24.11 94.3947 24.11 93.3547V76.8247C24.11 75.7847 24.39 74.8147 24.98 73.8747L25.1 73.6947V72.2947H18.82V73.4747L18.84 73.4547Z" fill="#FBF4E4"/>
<path id="Vector_16" d="M34.4801 91.5248H45.9001L47.1301 94.4048C47.4001 95.0448 47.3601 95.5848 46.9301 96.2248L46.8101 96.4148V97.8248H53.0201V96.6748L52.9801 96.3948L52.8601 96.2148C52.2401 95.2248 51.6801 94.1748 51.2101 93.1148L42.1101 71.4348H40.2101L30.7301 92.7248C30.2001 93.9448 29.5401 95.1048 28.7201 96.2348L28.5801 96.4348V97.8348H33.5401V96.6848L33.5001 96.3948L33.3701 96.2048C32.9601 95.5948 32.9101 95.0348 33.2201 94.3648L34.4801 91.5448V91.5248ZM40.3401 78.2248L44.5901 88.5548H35.8401L40.3401 78.2248Z" fill="#FBF4E4"/>
<path id="Vector_17" d="M78.9698 96.5249V95.4749H77.9598C77.7098 95.4749 77.3398 95.2449 76.9398 94.8549C76.3898 94.3049 75.8998 93.6749 75.4798 92.9649C75.0098 92.1749 74.4698 91.3249 73.8698 90.4549C73.4398 89.8249 73.0298 89.3149 72.6398 88.9249C72.9298 88.7849 73.2198 88.6349 73.4998 88.4549C74.8798 87.6049 75.9398 86.5449 76.6398 85.2949C77.3498 83.9549 77.6998 82.5049 77.6998 80.9649C77.6998 79.4249 77.3398 77.9749 76.6298 76.6149C75.9098 75.3049 74.7798 74.1949 73.2798 73.3149C72.0898 72.6149 70.7698 72.2649 69.3498 72.2649H56.5598V73.4449L56.5998 73.7349L56.7198 73.9249C57.2898 74.7949 57.5698 75.7549 57.5698 76.7949V93.3249C57.5698 94.3649 57.2798 95.3249 56.6698 96.2649L56.5498 96.4549V97.8249H62.8598V96.6449L62.8198 96.3649L62.6998 96.1849C62.1498 95.3049 61.8598 94.3549 61.8398 93.3649V89.6649H65.3698C65.8698 89.6649 66.3698 89.7449 66.8498 89.9049C67.3298 90.0649 67.7798 90.2949 68.1698 90.5849C68.5698 90.8849 68.9198 91.2449 69.2098 91.6349C69.5398 92.1149 69.9798 92.8249 70.5398 93.7249C71.1098 94.6649 71.5098 95.2949 71.7398 95.6249C72.8198 97.0849 74.4398 97.8349 76.5798 97.8349H78.9398V96.5349L78.9698 96.5249ZM70.8898 85.9149C70.3298 86.2349 69.6798 86.4549 68.9398 86.5649L68.8098 86.5849C68.6198 86.6249 68.4198 86.6549 68.2098 86.6749C67.9898 86.6949 67.7598 86.7049 67.5198 86.7049H61.8498V75.2049H67.7498L68.3598 75.2649C68.5498 75.2849 68.7298 75.3149 68.9398 75.3549C69.6498 75.4749 70.2998 75.6949 70.8698 76.0149C71.7598 76.5249 72.4398 77.2049 72.8798 78.0049C73.2398 78.7049 73.4398 79.6049 73.4798 80.6649V81.0349C73.4398 82.2749 73.2398 83.2449 72.8898 83.9049C72.4398 84.7249 71.7598 85.4049 70.8698 85.9149H70.8898Z" fill="#FBF4E4"/>
<path id="Vector_18" d="M105.04 93.6451C105.67 92.3751 105.99 90.9951 105.99 89.5351C105.99 88.1751 105.72 86.8951 105.18 85.7151C104.73 84.7651 103.89 83.7851 102.68 82.7951C102.38 82.5451 102.06 82.3151 101.73 82.1251C102.1 81.8451 102.42 81.5451 102.69 81.2051C103.46 80.2151 103.85 79.0951 103.85 77.8751C103.85 76.2851 103.35 74.9451 102.37 73.9051C102.03 73.5351 101.55 73.2051 100.93 72.9351C100.38 72.6951 99.8098 72.5151 99.2498 72.4051C98.6998 72.3051 98.1898 72.2551 97.7298 72.2551H83.0098V73.4351L83.0498 73.7251L83.1698 73.9151C83.7398 74.7851 84.0198 75.7351 84.0198 76.7551V93.3451C84.0198 94.3551 83.7298 95.2951 83.1298 96.2051L83.0098 96.3951V97.8051H97.6998C98.3798 97.8051 99.1398 97.7151 99.9498 97.5251C100.81 97.3351 101.52 97.0451 102.08 96.6851C103.49 95.7551 104.48 94.7251 105.03 93.6151L105.04 93.6451ZM88.2798 75.2351H96.8898C97.8298 75.2351 98.5498 75.4951 99.0098 75.9951C99.5098 76.5351 99.7398 77.1851 99.7398 78.0251C99.7398 78.8051 99.4798 79.4251 98.9198 79.9851C98.3598 80.5451 97.7198 80.8051 96.9198 80.8051H88.2698V75.2351H88.2798ZM101.18 92.2251C100.8 93.0351 100.23 93.6851 99.4798 94.1451C98.7198 94.6151 97.7698 94.8551 96.6598 94.8551H88.2898V83.7651H96.9298C97.7998 83.8051 98.6098 84.0751 99.3598 84.5751C100.12 85.0851 100.72 85.7651 101.15 86.5751C101.58 87.3951 101.8 88.3251 101.8 89.3251C101.8 90.3951 101.6 91.3651 101.2 92.2151L101.18 92.2251Z" fill="#FBF4E4"/>
<path id="Vector_19" d="M129.73 73.5246C127.77 72.3146 125.4 71.6946 122.7 71.6946C120 71.6946 117.63 72.3046 115.67 73.5246C113.71 74.7346 112.21 76.3846 111.21 78.4046C110.23 80.3946 109.74 82.6546 109.74 85.0946C109.74 87.5346 110.24 89.7346 111.21 91.7346C112.21 93.7746 113.71 95.4146 115.67 96.6046C117.63 97.7946 119.99 98.3946 122.69 98.3946C125.39 98.3946 127.69 97.7846 129.65 96.5846C131.61 95.3846 133.12 93.7446 134.14 91.7046C135.14 89.6946 135.65 87.4746 135.65 85.0946C135.65 82.7146 135.15 80.3946 134.18 78.4046C133.19 76.3746 131.69 74.7346 129.72 73.5246H129.73ZM130.34 90.4746C129.67 92.0346 128.68 93.2946 127.39 94.1946C126.11 95.0846 124.53 95.5346 122.7 95.5346C120.87 95.5346 119.29 95.0846 118.01 94.1946C116.72 93.2946 115.72 92.0446 115.06 90.4746C114.37 88.8546 114.02 87.0446 114.02 85.0946C114.02 83.1446 114.37 81.2746 115.06 79.6646C115.73 78.1046 116.72 76.8446 118.02 75.9246C119.3 75.0146 120.87 74.5546 122.7 74.5546C124.53 74.5546 126.11 75.0146 127.38 75.9246C128.68 76.8546 129.67 78.1046 130.34 79.6646C131.03 81.2646 131.38 83.0946 131.38 85.0946C131.38 87.0946 131.03 88.8546 130.34 90.4746Z" fill="#FBF4E4"/>
<path id="Vector_20" d="M162.17 96.5247V95.4747H161.16C160.91 95.4747 160.54 95.2447 160.14 94.8547C159.59 94.3047 159.1 93.6747 158.68 92.9747C158.21 92.1847 157.67 91.3447 157.07 90.4647C156.64 89.8347 156.23 89.3247 155.84 88.9347C156.14 88.7947 156.42 88.6447 156.7 88.4647C158.08 87.6147 159.13 86.5547 159.84 85.3047C160.55 83.9647 160.9 82.5147 160.9 80.9747C160.9 79.4347 160.54 77.9847 159.83 76.6247C159.11 75.3147 157.98 74.2047 156.48 73.3247C155.29 72.6247 153.97 72.2747 152.55 72.2747H139.76V73.4547L139.8 73.7447L139.92 73.9347C140.49 74.8047 140.77 75.7647 140.77 76.8047V93.3347C140.77 94.3747 140.48 95.3347 139.87 96.2747L139.75 96.4647V97.8347H146.06V96.6547L146.02 96.3747L145.9 96.1947C145.35 95.3147 145.06 94.3647 145.04 93.3747V89.6747H148.57C149.07 89.6747 149.57 89.7547 150.05 89.9147C150.53 90.0747 150.98 90.3047 151.37 90.5947C151.77 90.8947 152.13 91.2547 152.41 91.6447C152.74 92.1247 153.18 92.8247 153.74 93.7347C154.31 94.6747 154.71 95.3047 154.94 95.6347C156.02 97.0947 157.64 97.8447 159.78 97.8447H162.14V96.5447L162.17 96.5247ZM154.1 85.9147C153.54 86.2347 152.89 86.4547 152.15 86.5647L152.02 86.5847C151.83 86.6247 151.63 86.6547 151.42 86.6747C151.2 86.6947 150.97 86.7047 150.73 86.7047H145.06V75.2047H150.96L151.57 75.2647C151.76 75.2847 151.94 75.3147 152.15 75.3547C152.86 75.4747 153.51 75.6947 154.08 76.0147C154.97 76.5247 155.65 77.2047 156.09 78.0047C156.45 78.7047 156.65 79.6047 156.69 80.6647V81.0347C156.65 82.2747 156.45 83.2447 156.1 83.9047C155.65 84.7247 154.97 85.4047 154.08 85.9147H154.1Z" fill="#FBF4E4"/>
<g id="Group">
<path id="Vector_21" d="M51.32 36.6249C51.47 36.5849 51.82 36.5549 52.23 36.5549C53.25 36.5549 56.94 36.3949 59.09 36.1049C61.24 35.8149 62.39 36.4049 64.36 37.1649C64.66 37.1849 64.63 37.2049 65.82 36.0149C67.37 34.2649 69.49 34.3549 71.09 33.7649C72.69 33.1749 73.86 32.7549 74.85 32.2349C75.26 32.0149 75.5 31.9549 75.58 32.0049C75.58 31.9249 75.57 31.8649 75.53 31.8049C75.36 31.5849 75.01 31.7149 74.53 31.9649C73.6 32.4549 72.5 32.8549 70.97 33.4149L70.8701 33.4549C70.4301 33.6149 69.95 33.7249 69.45 33.8349C68.18 34.1149 66.75 34.4449 65.63 35.7049L65.51 35.8249C64.61 36.7249 64.56 36.7849 64.39 36.7749C64.19 36.6949 63.9901 36.6249 63.8101 36.5449C62.2301 35.9249 61.08 35.4749 59.15 35.7349C57.03 36.0149 53.42 36.1849 52.46 36.1649C51.3 36.1649 51.3 36.3349 51.29 36.4649C51.29 36.5249 51.29 36.5649 51.33 36.6049L51.32 36.6249Z" fill="#FBF4E4"/>
<path id="Vector_22" d="M81.1805 63.745C98.2737 63.745 112.13 49.8882 112.13 32.795C112.13 15.7018 98.2737 1.84497 81.1805 1.84497C64.0873 1.84497 50.2305 15.7018 50.2305 32.795C50.2305 49.8882 64.0873 63.745 81.1805 63.745Z" stroke="#FBF4E4" stroke-width="2.2" stroke-miterlimit="10"/>
<path id="Vector_23" d="M53.7002 46.4949H108.88" stroke="#FBF4E4" stroke-width="2.3" stroke-miterlimit="10"/>
<path id="Vector_24" d="M56.4004 51.105H106.01" stroke="#FBF4E4" stroke-width="1.7" stroke-miterlimit="10"/>
<path id="Vector_25" d="M59.9102 55.885H102.4" stroke="#FBF4E4" stroke-width="1.2" stroke-miterlimit="10"/>
<path id="Vector_26" d="M104.97 28.095C104.85 28.385 104.62 28.785 104.24 29.335C103.03 31.075 96.3102 34.365 94.6602 35.735C95.0702 36.075 95.1202 36.185 95.5402 36.465C97.5002 35.055 100.9 33.375 102.82 31.515C104.32 30.065 105.51 28.715 104.97 28.105V28.095Z" fill="#FBF4E4"/>
<path id="Vector_27" d="M68.7401 41.7749C67.2901 41.9649 66.6501 41.9849 66.5201 41.9249C66.4301 42.0749 67.4801 42.5749 67.9801 42.5149C68.6201 42.4349 69.3101 42.4849 69.9301 42.3849C70.0701 42.1249 70.2301 41.7849 70.3801 41.5349C69.9901 41.6049 69.4701 41.6949 69.0201 41.7349C68.9201 41.7449 68.8301 41.7649 68.7301 41.7749H68.7401Z" fill="#FBF4E4"/>
<g id="Group_2">
<path id="Vector_28" d="M79.1605 38.8751C82.6005 37.8151 84.6405 38.4951 88.0605 39.2251C88.5605 39.1751 88.5204 39.2251 90.1304 36.9151C90.7904 35.8551 91.5904 35.0851 92.4604 34.4951C90.2904 33.5051 87.8704 32.9451 85.3204 32.9451C84.9004 32.9451 84.4904 32.9651 84.0804 32.9951C84.0804 32.9951 81.3205 33.4451 80.2805 33.6951C76.2305 34.6951 72.8805 37.4151 70.7305 40.9451C73.2705 40.4151 76.8105 39.5951 79.1705 38.8751H79.1605Z" fill="#FBF4E4"/>
<path id="Vector_29" d="M94.6703 35.7251C94.6703 35.7251 94.6003 35.7751 94.5803 35.7951C93.0303 37.2651 92.6504 38.4151 92.4904 38.7551C92.3304 39.0951 92.9704 39.1451 93.5504 39.4051C94.4004 39.7851 93.9003 40.5851 94.6703 40.8551C95.0803 40.9951 95.3504 41.1951 95.3104 41.4551C95.2704 41.7051 94.8003 41.4751 94.0703 41.2551C93.3403 41.0351 93.5504 42.0851 91.8004 42.7451C89.4904 43.6551 86.9404 43.2951 86.3604 43.1451C85.7804 42.9951 85.3004 43.0351 84.8004 43.1851C84.3004 43.3351 84.1703 43.4751 83.9503 43.3751C83.7303 43.2651 83.5603 43.3351 82.9603 43.4051C82.3603 43.4751 82.7703 43.1851 82.9403 43.0051C82.9403 43.0051 82.3903 43.0851 81.4803 43.3151C80.5603 43.5451 80.9603 43.0651 81.4803 42.9051C82.0103 42.7451 82.5403 42.5851 82.9403 42.3751C83.3503 42.1651 83.7004 41.8551 83.9904 41.6251C83.3504 40.6751 80.0803 39.4251 77.0803 40.1751C75.5303 40.5651 73.1303 41.0951 70.3903 41.5251C69.6003 42.9451 68.9803 44.4851 68.5903 46.0951H102.04C101 41.7651 98.3103 38.0751 94.6703 35.7151V35.7251Z" fill="#FBF4E4"/>
</g>
<g id="Group_3">
<path id="Vector_30" d="M60.9103 38.2849C61.0903 38.2549 61.2703 38.2249 61.4203 38.1749C61.6803 38.0949 61.9103 37.9449 62.1003 37.8349C61.9103 37.4149 61.0003 36.8049 59.8703 36.5049C59.3703 36.5249 58.8303 36.5849 58.2103 36.6749C55.7403 37.0149 51.5603 37.0549 50.4603 36.6749C49.5903 36.3749 50.2403 37.2549 51.3603 37.2449C53.7603 37.2249 55.3103 37.6149 56.8003 37.3249C58.8503 37.1549 60.2703 37.2749 60.9203 38.2949L60.9103 38.2849Z" fill="#FBF4E4"/>
<path id="Vector_31" d="M75.5202 32.0249C75.4202 32.1749 75.2502 32.3749 75.0102 32.6249C74.1302 33.5349 69.7902 34.8249 68.7902 35.4549C67.7502 36.1649 67.4202 36.7949 67.3002 36.9749C67.1802 37.1549 67.5402 37.2449 67.8502 37.4549C68.3102 37.7549 67.9402 38.1749 68.3602 38.4049C68.5902 38.5249 68.7202 38.6649 68.6702 38.8149C68.6202 38.9549 68.3702 38.7749 67.9702 38.5849C67.5702 38.3849 67.5902 39.0149 66.5102 39.2349C65.0802 39.5449 63.6402 39.0949 63.3202 38.9449C63.0002 38.8049 62.7202 38.7749 62.4102 38.8249C62.1002 38.8649 62.0202 38.9349 61.9002 38.8549C61.7802 38.7749 61.6802 38.7949 61.3202 38.7849C60.9602 38.7749 61.2302 38.6349 61.3502 38.5549C61.3502 38.5549 61.1402 38.5549 60.7802 38.5749C60.6302 38.7049 60.4702 38.8549 60.2602 38.9149C59.9602 39.0149 58.9202 39.1149 58.7702 39.0749C58.2902 38.9449 58.4102 39.2749 59.0602 39.2149C59.7102 39.1549 60.0102 39.3349 60.0102 39.3349C59.8702 39.4349 59.7302 39.5949 60.1502 39.6049C60.5702 39.6249 60.7002 39.6049 60.8302 39.6949C60.9602 39.7849 61.0702 39.7149 61.4302 39.6649C61.7902 39.6149 62.1202 39.6449 62.5002 39.8149C62.8802 39.9849 64.5802 40.5149 66.2702 40.1549C67.5402 39.9049 67.6202 38.8549 68.3002 39.1749C68.6002 39.2649 68.9102 39.2749 69.0302 39.1449C69.1502 39.0149 68.8002 38.4049 68.6502 38.2549C68.1102 38.0149 68.6102 37.5049 68.0702 37.1549C67.2802 36.8849 68.4202 36.4049 68.5902 36.2649C68.7902 36.0949 69.5402 35.7849 70.3002 35.5249C71.4002 35.1449 73.6302 34.6049 74.3702 33.8449C74.8602 33.3449 76.1102 31.9349 75.5202 32.0449V32.0249Z" fill="#FBF4E4"/>
</g>
<path id="Vector_32" d="M95.8901 32.6951C96.7201 32.3551 97.4901 32.0451 98.2101 31.6351L98.3602 31.5451C100.75 30.1751 102.47 29.1951 103.92 28.0851C104.44 27.6851 104.82 27.6551 104.93 27.6251C104.91 27.7151 104.86 28.3551 104.66 28.7151C104.89 28.6251 104.87 28.9551 104.98 28.9651C105.23 28.4451 105.34 27.1951 105.18 27.2151C105.03 27.2351 104.35 27.2751 103.68 27.7751C102.24 28.8451 100.54 29.8451 98.1702 31.2051L98.0201 31.2951C97.3301 31.6851 96.5602 32.0051 95.7502 32.3351C94.4902 32.8451 93.1302 33.4051 91.9302 34.3451C92.0602 34.4151 92.1802 34.4951 92.3002 34.5651C93.4202 33.7251 94.6701 33.2051 95.9001 32.7051L95.8901 32.6951Z" fill="#FBF4E4"/>
<path id="Vector_33" d="M68.2403 41.1151C66.5003 41.4251 66.5403 41.6651 66.5703 41.7751C66.5703 41.7751 66.5703 41.7751 66.5703 41.7851C66.8303 41.7051 67.2104 41.6251 67.8104 41.5451C68.0304 41.5151 67.9603 41.5251 68.3303 41.4651C68.2303 41.4751 68.5103 41.4351 68.4203 41.4451C69.5503 41.2351 72.4103 40.5851 75.1703 39.8751C75.2403 39.7351 75.3003 39.5851 75.3803 39.4451C72.4503 40.2151 69.3304 40.9151 68.2504 41.1151H68.2403Z" fill="#FBF4E4"/>
</g>
</g>
</g>
</g>
</g>
</g>
</g>
</g>
<defs>
<clipPath id="clip0_1_13">
<rect width="1440" height="4715.12" fill="white" transform="translate(-40 -4388)"/>
</clipPath>
</defs>
</svg>
