<svg width="24" height="25" viewBox="0 0 24 25" fill="none" xmlns="http://www.w3.org/2000/svg">
<g id="calendar_month">
<mask id="mask0_664_10122" style="mask-type:alpha" maskUnits="userSpaceOnUse" x="0" y="0" width="24" height="25">
<rect id="Bounding box" y="0.614502" width="24" height="24" fill="#D9D9D9"/>
</mask>
<g mask="url(#mask0_664_10122)">
<path id="calendar_month_2" d="M5 22.6144C4.45 22.6144 3.97917 22.4185 3.5875 22.0269C3.19583 21.6352 3 21.1644 3 20.6144V6.61438C3 6.06438 3.19583 5.59355 3.5875 5.20188C3.97917 4.81021 4.45 4.61438 5 4.61438H6V2.61438H8V4.61438H16V2.61438H18V4.61438H19C19.55 4.61438 20.0208 4.81021 20.4125 5.20188C20.8042 5.59355 21 6.06438 21 6.61438V20.6144C21 21.1644 20.8042 21.6352 20.4125 22.0269C20.0208 22.4185 19.55 22.6144 19 22.6144H5ZM5 20.6144H19V10.6144H5V20.6144ZM5 8.61438H19V6.61438H5V8.61438ZM12 14.6144C11.7167 14.6144 11.4792 14.5185 11.2875 14.3269C11.0958 14.1352 11 13.8977 11 13.6144C11 13.331 11.0958 13.0935 11.2875 12.9019C11.4792 12.7102 11.7167 12.6144 12 12.6144C12.2833 12.6144 12.5208 12.7102 12.7125 12.9019C12.9042 13.0935 13 13.331 13 13.6144C13 13.8977 12.9042 14.1352 12.7125 14.3269C12.5208 14.5185 12.2833 14.6144 12 14.6144ZM8 14.6144C7.71667 14.6144 7.47917 14.5185 7.2875 14.3269C7.09583 14.1352 7 13.8977 7 13.6144C7 13.331 7.09583 13.0935 7.2875 12.9019C7.47917 12.7102 7.71667 12.6144 8 12.6144C8.28333 12.6144 8.52083 12.7102 8.7125 12.9019C8.90417 13.0935 9 13.331 9 13.6144C9 13.8977 8.90417 14.1352 8.7125 14.3269C8.52083 14.5185 8.28333 14.6144 8 14.6144ZM16 14.6144C15.7167 14.6144 15.4792 14.5185 15.2875 14.3269C15.0958 14.1352 15 13.8977 15 13.6144C15 13.331 15.0958 13.0935 15.2875 12.9019C15.4792 12.7102 15.7167 12.6144 16 12.6144C16.2833 12.6144 16.5208 12.7102 16.7125 12.9019C16.9042 13.0935 17 13.331 17 13.6144C17 13.8977 16.9042 14.1352 16.7125 14.3269C16.5208 14.5185 16.2833 14.6144 16 14.6144ZM12 18.6144C11.7167 18.6144 11.4792 18.5185 11.2875 18.3269C11.0958 18.1352 11 17.8977 11 17.6144C11 17.331 11.0958 17.0935 11.2875 16.9019C11.4792 16.7102 11.7167 16.6144 12 16.6144C12.2833 16.6144 12.5208 16.7102 12.7125 16.9019C12.9042 17.0935 13 17.331 13 17.6144C13 17.8977 12.9042 18.1352 12.7125 18.3269C12.5208 18.5185 12.2833 18.6144 12 18.6144ZM8 18.6144C7.71667 18.6144 7.47917 18.5185 7.2875 18.3269C7.09583 18.1352 7 17.8977 7 17.6144C7 17.331 7.09583 17.0935 7.2875 16.9019C7.47917 16.7102 7.71667 16.6144 8 16.6144C8.28333 16.6144 8.52083 16.7102 8.7125 16.9019C8.90417 17.0935 9 17.331 9 17.6144C9 17.8977 8.90417 18.1352 8.7125 18.3269C8.52083 18.5185 8.28333 18.6144 8 18.6144ZM16 18.6144C15.7167 18.6144 15.4792 18.5185 15.2875 18.3269C15.0958 18.1352 15 17.8977 15 17.6144C15 17.331 15.0958 17.0935 15.2875 16.9019C15.4792 16.7102 15.7167 16.6144 16 16.6144C16.2833 16.6144 16.5208 16.7102 16.7125 16.9019C16.9042 17.0935 17 17.331 17 17.6144C17 17.8977 16.9042 18.1352 16.7125 18.3269C16.5208 18.5185 16.2833 18.6144 16 18.6144Z" fill="#545454"/>
</g>
</g>
</svg>
