<svg width="20" height="15" viewBox="0 0 20 15" fill="none" xmlns="http://www.w3.org/2000/svg">
<path fill-rule="evenodd" clip-rule="evenodd" d="M-0.000976562 1.6145C-0.000976562 1.20029 0.334813 0.864502 0.749023 0.864502H19.249C19.6632 0.864502 19.999 1.20029 19.999 1.6145C19.999 2.02871 19.6632 2.3645 19.249 2.3645H0.749023C0.334813 2.3645 -0.000976562 2.02871 -0.000976562 1.6145ZM-0.000976562 7.6145C-0.000976562 7.2003 0.334813 6.8645 0.749023 6.8645H19.249C19.6632 6.8645 19.999 7.2003 19.999 7.6145C19.999 8.0287 19.6632 8.3645 19.249 8.3645H0.749023C0.334813 8.3645 -0.000976562 8.0287 -0.000976562 7.6145ZM-0.000976562 13.6145C-0.000976562 13.2003 0.334813 12.8645 0.749023 12.8645H19.249C19.6632 12.8645 19.999 13.2003 19.999 13.6145C19.999 14.0287 19.6632 14.3645 19.249 14.3645H0.749023C0.334813 14.3645 -0.000976562 14.0287 -0.000976562 13.6145Z" fill="#726856"/>
</svg>
