<svg width="148" height="105" viewBox="0 0 148 105" fill="none" xmlns="http://www.w3.org/2000/svg">
<g id="Group 1180">
<path id="Vector" d="M20.3518 101.137C20.726 100.936 21.0272 100.635 21.2371 100.261C21.447 99.8868 21.5474 99.4579 21.5474 98.9833C21.5474 98.5088 21.447 98.0798 21.2371 97.7056C21.0272 97.3315 20.7351 97.0303 20.3518 96.8295C19.9776 96.6287 19.5487 96.5284 19.0742 96.5284H15.8252V104.541H17.5409V101.447H18.5083L20.0689 104.541H22.0767L20.2971 101.174L20.3427 101.146L20.3518 101.137ZM17.55 98.1893H19.1198C19.2475 98.1893 19.3662 98.2167 19.4574 98.2806C19.5487 98.3354 19.6217 98.4266 19.6765 98.5361C19.7312 98.6639 19.7678 98.8099 19.7678 98.9833C19.7678 99.1567 19.7404 99.3028 19.6765 99.4305C19.6217 99.54 19.5487 99.6313 19.4574 99.6861C19.3662 99.7408 19.2475 99.7773 19.1198 99.7773H17.55V98.1985V98.1893Z" fill="#0F4C83"/>
<path id="Vector_2" d="M24.605 104.532H29.9986V102.862H26.3299V101.384H29.4419V99.7226H26.3299V98.1893H29.9986V96.5284H24.605V104.532Z" fill="#0F4C83"/>
<path id="Vector_3" d="M35.2904 101.576H36.778C36.778 101.868 36.7233 102.115 36.6229 102.316C36.5316 102.507 36.3947 102.662 36.2305 102.763C35.8837 102.973 35.327 102.964 34.971 102.763C34.7976 102.662 34.6607 102.525 34.5695 102.352C34.4691 102.17 34.4235 101.941 34.4235 101.686V99.5321C34.4235 99.24 34.4782 98.9845 34.5786 98.7746C34.6699 98.5738 34.8068 98.4187 34.9802 98.3091C35.2631 98.1266 35.6829 98.081 36.0479 98.2544C36.194 98.3274 36.3308 98.4278 36.4404 98.5647C36.5499 98.7016 36.632 98.8658 36.6868 99.1031L36.7415 99.3222H38.1926L38.5303 99.2491L38.4664 98.9023C38.3752 98.4186 38.1926 97.9897 37.9279 97.6247C37.6542 97.2505 37.3165 96.9584 36.9149 96.7577C36.0297 96.3105 34.8798 96.3652 34.0767 96.8398C33.6295 97.0953 33.2827 97.4695 33.0454 97.935C32.8081 98.3913 32.6895 98.9297 32.6895 99.5229V101.677C32.6895 102.243 32.8081 102.754 33.0545 103.201C33.3009 103.648 33.6477 103.995 34.104 104.241C34.5421 104.479 35.0531 104.606 35.6281 104.606C36.2031 104.606 36.705 104.479 37.1522 104.223C37.5994 103.967 37.9462 103.593 38.1835 103.119C38.4208 102.653 38.5394 102.124 38.5394 101.522V99.8971H35.3087V101.567L35.2904 101.576Z" fill="#0F4C83"/>
<path id="Vector_4" d="M43.2577 96.5284H41.542V104.532H43.2577V96.5284Z" fill="#0F4C83"/>
<path id="Vector_5" d="M50.7338 96.8296C49.8576 96.3277 48.5708 96.3277 47.6947 96.8296C47.2475 97.0851 46.9007 97.4502 46.6543 97.9156C46.417 98.372 46.2983 98.9013 46.2983 99.4945V101.566C46.2983 102.159 46.417 102.689 46.6543 103.145C46.9007 103.61 47.2475 103.976 47.6947 104.231C48.1328 104.487 48.6438 104.614 49.2188 104.614C49.7937 104.614 50.2957 104.487 50.7429 104.231C51.1901 103.976 51.5369 103.61 51.7833 103.145C52.0205 102.689 52.1392 102.159 52.1392 101.566V99.4945C52.1392 98.9013 52.0205 98.372 51.7833 97.9156C51.5369 97.4502 51.1901 97.0851 50.7429 96.8296H50.7338ZM50.387 99.458V101.603C50.387 101.876 50.3322 102.114 50.2318 102.315C50.1405 102.506 50.0037 102.652 49.8303 102.753C49.4835 102.962 48.9359 102.962 48.5891 102.753C48.4157 102.652 48.2879 102.506 48.1875 102.315C48.0871 102.114 48.0324 101.876 48.0324 101.603V99.458C48.0324 99.1842 48.0871 98.9469 48.1875 98.7461C48.2788 98.5545 48.4157 98.4085 48.5891 98.3081C48.7625 98.2077 48.9724 98.1529 49.2096 98.1529C49.4469 98.1529 49.6569 98.2077 49.8303 98.3081C50.0037 98.4085 50.1314 98.5545 50.2318 98.7461C50.3322 98.9469 50.387 99.1842 50.387 99.458Z" fill="#0F4C83"/>
<path id="Vector_6" d="M59.5411 101.137L56.6207 96.5284H55.1514V104.523H56.8671V99.9781L59.7784 104.523H61.2477V96.5284H59.5411V101.137Z" fill="#0F4C83"/>
<path id="Vector_7" d="M66.522 96.5284L63.5742 104.532H65.4268L65.9744 102.926H68.4294L68.977 104.532H70.8296L67.8818 96.5284H66.522ZM66.5493 101.256L67.2065 99.3484L67.8635 101.256H66.5493Z" fill="#0F4C83"/>
<path id="Vector_8" d="M74.8806 96.5284H73.1558V104.532H78.5494V102.862H74.8806V96.5284Z" fill="#0F4C83"/>
<path id="Vector_9" d="M88.8804 101.785L88.8257 102.004C88.7709 102.195 88.6887 102.369 88.5792 102.505C88.4697 102.642 88.3328 102.743 88.1777 102.816C87.8126 102.98 87.3837 102.944 87.0916 102.761C86.9274 102.652 86.7905 102.496 86.6992 102.296C86.5988 102.086 86.5441 101.83 86.5441 101.538V99.5303C86.5441 99.2383 86.5988 98.9827 86.6992 98.7728C86.7905 98.5721 86.9274 98.4169 87.1008 98.3074C87.3837 98.1249 87.7944 98.0792 88.1685 98.2618C88.3237 98.3348 88.4606 98.4443 88.5792 98.5903C88.6979 98.7363 88.78 98.8915 88.8439 99.1196L88.8987 99.3295H90.2858L90.6235 99.2565L90.5596 98.9097C90.4684 98.426 90.2859 97.9971 90.0212 97.632C89.7565 97.2579 89.4097 96.9658 89.0173 96.765C88.1411 96.3179 86.9913 96.3726 86.1881 96.8472C85.7501 97.1027 85.4033 97.4769 85.166 97.9423C84.9287 98.3986 84.8101 98.9371 84.8101 99.5303V101.538C84.8101 102.131 84.9287 102.67 85.166 103.126C85.4033 103.601 85.7501 103.966 86.1881 104.221C86.6262 104.477 87.1282 104.605 87.7031 104.605C88.1686 104.605 88.6158 104.504 89.0082 104.294C89.4098 104.093 89.7474 103.801 90.0212 103.427C90.2859 103.062 90.4684 102.633 90.5596 102.15L90.6418 101.739H89.1268L88.8895 101.785H88.8804Z" fill="#0F4C83"/>
<path id="Vector_10" d="M93.3813 104.532H98.775V102.862H95.0971V101.384H98.2183V99.7226H95.0971V98.1893H98.775V96.5284H93.3813V104.532Z" fill="#0F4C83"/>
<path id="Vector_11" d="M105.983 101.137L103.063 96.5284H101.593V104.523H103.309V99.9781L106.22 104.523H107.69V96.5284H105.983V101.137Z" fill="#0F4C83"/>
<path id="Vector_12" d="M109.863 98.1893H111.934V104.532H113.65V98.1893H115.722V96.5284H109.863V98.1893Z" fill="#0F4C83"/>
<path id="Vector_13" d="M117.895 104.532H123.288V102.862H119.61V101.384H122.731V99.7226H119.61V98.1893H123.288V96.5284H117.895V104.532Z" fill="#0F4C83"/>
<path id="Vector_14" d="M130.634 101.137C131.008 100.927 131.309 100.635 131.519 100.261C131.729 99.8868 131.829 99.4579 131.829 98.9833C131.829 98.5088 131.729 98.0798 131.519 97.7056C131.309 97.3315 131.017 97.0303 130.634 96.8295C130.259 96.6287 129.83 96.5284 129.356 96.5284H126.107V104.541H127.823V101.447H128.79L130.351 104.541H132.358L130.579 101.174C130.579 101.174 130.615 101.155 130.624 101.146L130.634 101.137ZM129.958 99.4305C129.904 99.54 129.831 99.6313 129.739 99.6861C129.648 99.7408 129.529 99.7773 129.402 99.7773H127.832V98.1985H129.402C129.529 98.1985 129.648 98.2258 129.739 98.2897C129.831 98.3445 129.904 98.4358 129.958 98.5453C130.022 98.673 130.05 98.8191 130.05 98.9925C130.05 99.1659 130.022 99.3119 129.958 99.4396V99.4305Z" fill="#0F4C83"/>
<path id="Vector_15" d="M17.1849 66.6028L17.2213 66.8675L17.3309 67.0409C17.8511 67.8349 18.1066 68.711 18.1066 69.6601V76.5323H4.82783V69.6601C4.82783 68.711 5.08336 67.8257 5.62181 66.9679L5.73132 66.8036V65.5259H0V66.6028L0.0365131 66.8675L0.146024 67.0409C0.666224 67.8349 0.921767 68.711 0.921767 69.6601V84.7459C0.921767 85.6951 0.65709 86.5712 0.109511 87.4199L0 87.5933V88.8436H5.73132V87.7941L5.69484 87.5386L5.5853 87.3743C5.08335 86.5803 4.82783 85.6951 4.82783 84.7459V79.2063H18.1066V84.7459C18.1066 85.6951 17.842 86.5712 17.2944 87.4199L17.1849 87.5933V88.8436H22.9162V87.7941L22.8797 87.5386L22.7702 87.3743C22.2682 86.5803 22.0127 85.6951 22.0127 84.7459V69.6601C22.0127 68.711 22.2682 67.8257 22.8066 66.9679L22.9162 66.8036V65.5259H17.1849V66.6028Z" fill="#0F4C83"/>
<path id="Vector_16" d="M31.468 83.0844H41.8903L43.0128 85.7128C43.2592 86.2969 43.2227 86.7897 42.8303 87.3738L42.7207 87.5472V88.834H48.3882V87.7845L48.3517 87.529L48.2422 87.3647C47.6672 86.4612 47.1653 85.5029 46.7364 84.5355L38.4314 64.7497H36.6974L28.0456 84.1796C27.5619 85.293 26.9596 86.3425 26.2113 87.3829L26.0835 87.5655V88.8431H30.6101V87.7936L30.5736 87.529L30.455 87.3556C30.0808 86.7989 30.0352 86.2878 30.3181 85.6763L31.468 83.1027V83.0844ZM32.7092 80.383L36.8161 70.9556L40.6947 80.383H32.7092Z" fill="#0F4C83"/>
<path id="Vector_17" d="M72.0611 87.6521V86.6938H71.1394C70.9112 86.6938 70.5735 86.4839 70.2085 86.128C69.7065 85.6261 69.2594 85.0511 68.8761 84.4031C68.4471 83.6821 67.9543 82.9155 67.4067 82.1124C67.0142 81.5375 66.6401 81.072 66.2842 80.7161C66.5579 80.5883 66.8135 80.4514 67.0781 80.2872C68.3376 79.5114 69.2959 78.544 69.9438 77.4032C70.5918 76.1803 70.9112 74.857 70.9112 73.4515C70.9112 72.0461 70.5827 70.7228 69.9347 69.4816C69.2776 68.2861 68.2463 67.273 66.8774 66.4699C65.7914 65.8311 64.5867 65.5117 63.2908 65.5117H51.6182V66.5886L51.6547 66.8532L51.7642 67.0266C52.2844 67.8206 52.5399 68.6967 52.5399 69.6459V84.7317C52.5399 85.6808 52.2753 86.5569 51.7277 87.4057L51.6182 87.5791V88.8294H57.3769V87.7525L57.3404 87.4969L57.2309 87.3327C56.7289 86.5296 56.4643 85.6626 56.446 84.7591V81.3823H59.6676C60.1239 81.3823 60.5802 81.4553 61.0183 81.6013C61.4563 81.7474 61.867 81.9573 62.2229 82.2219C62.588 82.4957 62.9166 82.8243 63.1721 83.1802C63.4733 83.6183 63.8748 84.2571 64.3859 85.0876C64.9061 85.9455 65.2711 86.5204 65.481 86.8216C66.4667 88.154 67.9543 88.8385 69.8982 88.8385H72.052V87.6521H72.0611ZM56.4551 68.1948H61.8396L62.3963 68.2495C62.5697 68.2678 62.7249 68.2952 62.9257 68.3317C63.5736 68.4412 64.1669 68.642 64.6871 68.934C65.4993 69.3995 66.1199 70.0201 66.5215 70.7502C66.85 71.389 67.0325 72.2104 67.069 73.1778V73.5154C67.0325 74.6471 66.85 75.5323 66.5306 76.1347C66.1199 76.883 65.4993 77.5036 64.6871 77.9691C64.176 78.2611 63.5828 78.4619 62.9165 78.5623L62.7979 78.5805C62.6245 78.617 62.442 78.6444 62.2503 78.6627C62.0496 78.6809 61.8397 78.69 61.6206 78.69H56.446V68.1948H56.4551Z" fill="#0F4C83"/>
<path id="Vector_18" d="M95.8527 85.0237C96.4277 83.8647 96.7197 82.6052 96.7197 81.2728C96.7197 80.0316 96.4733 78.8635 95.9804 77.7865C95.5698 76.9195 94.8031 76.0252 93.6989 75.1308C93.4251 74.9026 93.1331 74.6927 92.8319 74.5193C93.1696 74.2638 93.4616 73.99 93.708 73.6797C94.4107 72.7762 94.7667 71.754 94.7667 70.6406C94.7667 69.1896 94.3103 67.9666 93.4159 67.0175C93.1057 66.6798 92.6676 66.3787 92.1018 66.1322C91.5907 65.9041 91.0796 65.7489 90.5685 65.6486C90.0757 65.5573 89.6012 65.5117 89.1814 65.5117H75.7474V66.5886L75.7839 66.8532L75.8935 67.0266C76.4137 67.8206 76.6692 68.6876 76.6692 69.6185V84.759C76.6692 85.6808 76.4045 86.5387 75.8569 87.3692L75.7383 87.5426V88.8294H89.1448C89.7654 88.8294 90.459 88.7473 91.1983 88.5739C91.9831 88.3913 92.6311 88.1358 93.1422 87.8072C94.429 86.9585 95.3325 86.0185 95.8344 85.0055L95.8527 85.0237ZM80.557 76.016H88.4422C89.2361 76.0525 89.9754 76.299 90.6598 76.7553C91.3534 77.2207 91.901 77.8413 92.2934 78.5805C92.6859 79.3289 92.8867 80.1776 92.8867 81.0903C92.8867 82.0668 92.7041 82.952 92.3391 83.7278C91.9923 84.467 91.472 85.0602 90.7876 85.48C90.094 85.909 89.227 86.128 88.214 86.128H80.5752V76.0069L80.557 76.016ZM90.2765 72.5572C89.7654 73.0682 89.1813 73.3055 88.4512 73.3055H80.557V68.2222H88.4147C89.2726 68.2222 89.9297 68.4594 90.3495 68.9158C90.8058 69.4086 91.0157 70.0018 91.0157 70.7684C91.0157 71.4803 90.7785 72.0461 90.2674 72.5572H90.2765Z" fill="#0F4C83"/>
<path id="Vector_19" d="M118.387 66.6636C116.598 65.5593 114.435 64.9935 111.971 64.9935C109.507 64.9935 107.344 65.5502 105.555 66.6636C103.766 67.7679 102.397 69.2646 101.485 71.1173C100.59 72.9334 100.143 74.9959 100.143 77.2228C100.143 79.4496 100.599 81.4574 101.485 83.2826C102.397 85.1444 103.766 86.6411 105.555 87.7272C107.344 88.8132 109.498 89.3608 111.962 89.3608C114.426 89.3608 116.525 88.8041 118.314 87.7089C120.102 86.6137 121.48 85.117 122.411 83.2553C123.324 81.4209 123.789 79.3948 123.789 77.2228C123.789 75.0507 123.333 72.9334 122.448 71.1173C121.535 69.2646 120.175 67.7679 118.377 66.6636H118.387ZM119.892 77.2319C119.892 79.0115 119.573 80.6634 118.943 82.1419C118.332 83.5747 117.428 84.7155 116.251 85.5368C115.083 86.3491 113.65 86.7598 111.971 86.7598C110.292 86.7598 108.859 86.3491 107.691 85.5368C106.513 84.7155 105.601 83.5747 104.998 82.1419C104.369 80.6634 104.049 79.0115 104.049 77.2319C104.049 75.4523 104.369 73.7456 104.998 72.2763C105.61 70.8526 106.513 69.7027 107.7 68.8631C108.868 68.0326 110.301 67.6128 111.971 67.6128C113.641 67.6128 115.083 68.0326 116.242 68.8631C117.428 69.7118 118.332 70.8617 118.943 72.2763C119.573 73.7365 119.892 75.4066 119.892 77.2319Z" fill="#0F4C83"/>
<path id="Vector_20" d="M148 87.6521V86.6938H147.078C146.85 86.6938 146.512 86.4839 146.147 86.128C145.645 85.6261 145.198 85.0511 144.815 84.4031C144.386 83.6821 143.893 82.9064 143.346 82.1124C142.953 81.5375 142.579 81.072 142.223 80.7161C142.497 80.5883 142.752 80.4514 143.017 80.2872C144.277 79.5114 145.235 78.544 145.883 77.4032C146.531 76.1803 146.85 74.857 146.85 73.4515C146.85 72.0461 146.522 70.7228 145.874 69.4816C145.217 68.2861 144.185 67.273 142.816 66.4699C141.73 65.8311 140.526 65.5117 139.23 65.5117H127.557V66.5886L127.594 66.8532L127.703 67.0266C128.223 67.8206 128.479 68.6967 128.479 69.6459V84.7317C128.479 85.6808 128.214 86.5569 127.667 87.4057L127.557 87.5791V88.8294H133.316V87.7525L133.279 87.4969L133.17 87.3327C132.668 86.5296 132.403 85.6626 132.385 84.7591V81.3823H135.607C136.063 81.3823 136.519 81.4553 136.957 81.6013C137.395 81.7474 137.806 81.9573 138.162 82.2219C138.527 82.4957 138.855 82.8243 139.111 83.1802C139.412 83.6183 139.814 84.2662 140.325 85.0876C140.845 85.9455 141.21 86.5204 141.42 86.8216C142.406 88.154 143.884 88.8385 145.837 88.8385H147.991V87.6521H148ZM132.394 68.1948H137.779L138.335 68.2495C138.509 68.2678 138.664 68.2952 138.865 68.3317C139.513 68.4412 140.106 68.642 140.626 68.934C141.438 69.3995 142.059 70.0201 142.46 70.7502C142.789 71.389 142.971 72.2104 143.008 73.1778V73.5154C142.971 74.6471 142.789 75.5323 142.469 76.1347C142.059 76.883 141.438 77.5036 140.626 77.9691C140.115 78.2611 139.522 78.4619 138.846 78.5623L138.728 78.5805C138.554 78.617 138.372 78.6444 138.18 78.6627C137.979 78.6809 137.769 78.69 137.55 78.69H132.376V68.1948H132.394Z" fill="#0F4C83"/>
<g id="Group">
<path id="Vector_21" d="M76.7787 30.6146C77.1529 30.5873 77.5271 30.569 77.9104 30.569C85.3118 30.569 91.5086 35.6889 93.1696 42.5792H62.6421C63.9472 37.1856 67.9536 32.5768 73.3016 31.2626C74.2508 31.0253 76.7696 30.6238 76.7696 30.6238L76.7787 30.6146Z" fill="#E9C978"/>
<path id="Vector_22" d="M86.379 33.5716C87.748 32.3578 94.0816 29.2822 95.2041 27.6669C96.3267 26.0515 96.1898 25.6135 94.8482 26.6447C93.5066 27.676 91.8639 28.6069 89.6188 29.8846C87.3738 31.1623 84.1887 31.5547 82.3178 34.5938C80.8485 36.6928 80.885 36.6563 80.4286 36.7019C77.2983 36.0357 75.4365 35.4151 72.3062 36.3825C69.1667 37.3499 63.7092 38.4998 62.1852 38.7371C60.6611 38.9744 59.6754 39.449 62.7966 39.0291C65.9269 38.6093 68.7105 38.007 70.3988 37.5781C73.1367 36.8845 76.121 38.0344 76.7051 38.9014C76.4404 39.1204 76.1119 39.3942 75.7468 39.5858C75.3727 39.7775 74.8981 39.9235 74.4144 40.0695C73.9307 40.2156 73.5748 40.6536 74.4144 40.4437C75.254 40.2338 75.7468 40.1608 75.7468 40.1608C75.5917 40.3251 75.2175 40.5897 75.7651 40.5259C76.3127 40.462 76.477 40.3981 76.6686 40.4985C76.8694 40.5989 76.9789 40.4711 77.4443 40.3251C77.9006 40.1882 78.3387 40.1517 78.868 40.2886C79.3973 40.4255 81.7246 40.754 83.8327 39.9235C85.4298 39.3212 85.2382 38.3629 85.9044 38.5637C86.5707 38.7645 86.9996 38.9835 87.0361 38.7462C87.0726 38.5181 86.8353 38.3264 86.452 38.1987C85.7493 37.9522 86.2056 37.2221 85.4298 36.8753C84.9005 36.638 84.3164 36.5924 84.4625 36.2821C84.6085 35.9718 84.9553 34.9223 86.3699 33.5807L86.379 33.5716Z" fill="#0F4C83"/>
<path id="Vector_23" d="M63.2358 34.0096C64.1485 33.4347 68.1093 32.2574 68.9124 31.4269C69.7155 30.5964 69.679 30.3317 68.8029 30.7972C67.9268 31.2626 66.8864 31.6459 65.4627 32.1844C64.039 32.7137 62.159 32.6316 60.7809 34.2195C59.7314 35.2965 59.7587 35.2782 59.4849 35.2599C57.7327 34.5755 56.7197 34.0461 54.8031 34.3017C52.8957 34.5663 49.6194 34.7124 48.7159 34.7032C47.8124 34.7032 47.1918 34.8766 49.0444 34.9314C50.8971 34.9862 52.5672 34.904 53.5894 34.8128C55.2412 34.6759 56.8566 35.625 57.1213 36.1817C56.9479 36.2821 56.7288 36.4099 56.5007 36.492C56.2634 36.565 55.9713 36.6106 55.6793 36.6471C55.3872 36.6837 55.1408 36.9027 55.6428 36.8662C56.1447 36.8205 56.4459 36.8297 56.4459 36.8297C56.3364 36.9118 56.0991 37.0305 56.4185 37.0396C56.7471 37.0578 56.8383 37.0396 56.9479 37.1035C57.0574 37.1765 57.1304 37.1126 57.4133 37.0761C57.6962 37.0396 57.9517 37.0578 58.2438 37.1856C58.5358 37.3134 59.8591 37.724 61.1551 37.4503C62.1407 37.2495 62.1225 36.6745 62.4875 36.8571C62.8526 37.0396 63.0807 37.2039 63.1263 37.067C63.172 36.9392 63.0442 36.8023 62.8434 36.6928C62.4601 36.4829 62.7978 36.1087 62.378 35.8258C62.0951 35.6341 61.7665 35.552 61.876 35.3877C61.9855 35.2234 62.2958 34.6485 63.2358 34.0005V34.0096Z" fill="#0F4C83"/>
<path id="Vector_24" d="M74.0057 58.4919C89.6055 58.4919 102.252 45.8457 102.252 30.2459C102.252 14.6461 89.6055 2 74.0057 2C58.4059 2 45.7598 14.6461 45.7598 30.2459C45.7598 45.8457 58.4059 58.4919 74.0057 58.4919Z" stroke="#0F4C83" stroke-width="2.2" stroke-miterlimit="10"/>
<path id="Vector_25" d="M48.918 42.7504H99.286" stroke="#0F4C83" stroke-width="2.3" stroke-miterlimit="10"/>
<path id="Vector_26" d="M51.3813 46.9546H96.657" stroke="#0F4C83" stroke-width="1.7" stroke-miterlimit="10"/>
</g>
<path id="Vector_27" d="M54.5942 51.3137H93.3811" stroke="#0F4C83" stroke-width="1.2" stroke-miterlimit="10"/>
</g>
</svg>
