<svg width="24" height="25" viewBox="0 0 24 25" fill="none" xmlns="http://www.w3.org/2000/svg">
<g id="mail">
<mask id="mask0_524_2769" style="mask-type:alpha" maskUnits="userSpaceOnUse" x="0" y="0" width="24" height="25">
<rect id="Bounding box" y="0.614502" width="24" height="24" fill="#D9D9D9"/>
</mask>
<g mask="url(#mask0_524_2769)">
<path id="mail_2" d="M4 20.6145C3.45 20.6145 2.97917 20.4187 2.5875 20.027C2.19583 19.6353 2 19.1645 2 18.6145V6.6145C2 6.0645 2.19583 5.59367 2.5875 5.202C2.97917 4.81034 3.45 4.6145 4 4.6145H20C20.55 4.6145 21.0208 4.81034 21.4125 5.202C21.8042 5.59367 22 6.0645 22 6.6145V18.6145C22 19.1645 21.8042 19.6353 21.4125 20.027C21.0208 20.4187 20.55 20.6145 20 20.6145H4ZM12 13.6145L4 8.6145V18.6145H20V8.6145L12 13.6145ZM12 11.6145L20 6.6145H4L12 11.6145ZM4 8.6145V6.6145V18.6145V8.6145Z" fill="#0F4C83"/>
</g>
</g>
</svg>
