<svg width="24" height="25" viewBox="0 0 24 25" fill="none" xmlns="http://www.w3.org/2000/svg">
<g id="search">
<mask id="mask0_584_8405" style="mask-type:alpha" maskUnits="userSpaceOnUse" x="0" y="0" width="24" height="25">
<rect id="Bounding box" y="0.614502" width="24" height="24" fill="#D9D9D9"/>
</mask>
<g mask="url(#mask0_584_8405)">
<path id="search_2" d="M19.6 21.6145L13.3 15.3145C12.8 15.7145 12.225 16.0312 11.575 16.2645C10.925 16.4978 10.2333 16.6145 9.5 16.6145C7.68333 16.6145 6.14583 15.9853 4.8875 14.727C3.62917 13.4687 3 11.9312 3 10.1145C3 8.29784 3.62917 6.76034 4.8875 5.502C6.14583 4.24367 7.68333 3.6145 9.5 3.6145C11.3167 3.6145 12.8542 4.24367 14.1125 5.502C15.3708 6.76034 16 8.29784 16 10.1145C16 10.8478 15.8833 11.5395 15.65 12.1895C15.4167 12.8395 15.1 13.4145 14.7 13.9145L21 20.2145L19.6 21.6145ZM9.5 14.6145C10.75 14.6145 11.8125 14.177 12.6875 13.302C13.5625 12.427 14 11.3645 14 10.1145C14 8.8645 13.5625 7.802 12.6875 6.927C11.8125 6.052 10.75 5.6145 9.5 5.6145C8.25 5.6145 7.1875 6.052 6.3125 6.927C5.4375 7.802 5 8.8645 5 10.1145C5 11.3645 5.4375 12.427 6.3125 13.302C7.1875 14.177 8.25 14.6145 9.5 14.6145Z" fill="#0F4C83"/>
</g>
</g>
</svg>
