<svg width="20" height="21" viewBox="0 0 20 21" fill="none" xmlns="http://www.w3.org/2000/svg">
<path d="M10 20.3073L9 17.3073H2C1.45 17.3073 0.979167 17.1114 0.5875 16.7198C0.195833 16.3281 0 15.8573 0 15.3073V2.30725C0 1.75725 0.195833 1.28642 0.5875 0.894751C0.979167 0.503084 1.45 0.307251 2 0.307251H8L8.875 3.30725H18C18.5833 3.30725 19.0625 3.49475 19.4375 3.86975C19.8125 4.24475 20 4.72392 20 5.30725V18.3073C20 18.8573 19.8125 19.3281 19.4375 19.7198C19.0625 20.1114 18.5833 20.3073 18 20.3073H10ZM5.15 12.9073C6.3 12.9073 7.24583 12.5364 7.9875 11.7948C8.72917 11.0531 9.1 10.0906 9.1 8.90725C9.1 8.77392 9.09583 8.65308 9.0875 8.54475C9.07917 8.43642 9.05833 8.32392 9.025 8.20725H5.075V9.75725H7.3C7.16667 10.2239 6.9125 10.5864 6.5375 10.8448C6.1625 11.1031 5.70833 11.2323 5.175 11.2323C4.525 11.2323 3.96667 10.9989 3.5 10.5323C3.03333 10.0656 2.8 9.49058 2.8 8.80725C2.8 8.12392 3.03333 7.54892 3.5 7.08225C3.96667 6.61558 4.525 6.38225 5.175 6.38225C5.475 6.38225 5.75833 6.43642 6.025 6.54475C6.29167 6.65308 6.53333 6.81558 6.75 7.03225L7.975 5.85725C7.625 5.49058 7.20417 5.20725 6.7125 5.00725C6.22083 4.80725 5.7 4.70725 5.15 4.70725C4.03333 4.70725 3.07917 5.10308 2.2875 5.89475C1.49583 6.68642 1.1 7.65725 1.1 8.80725C1.1 9.95725 1.49583 10.9281 2.2875 11.7198C3.07917 12.5114 4.03333 12.9073 5.15 12.9073ZM11.85 13.4073L12.4 12.8823C12.1667 12.5989 11.9542 12.3239 11.7625 12.0573C11.5708 11.7906 11.3833 11.5073 11.2 11.2073L11.85 13.4073ZM13.1 12.1323C13.5667 11.5823 13.9208 11.0573 14.1625 10.5573C14.4042 10.0573 14.5667 9.66558 14.65 9.38225H10.675L10.975 10.4323H11.975C12.1083 10.6823 12.2667 10.9531 12.45 11.2448C12.6333 11.5364 12.85 11.8323 13.1 12.1323ZM11 19.3073H18C18.3 19.3073 18.5417 19.2114 18.725 19.0198C18.9083 18.8281 19 18.5906 19 18.3073V5.30725C19 5.00725 18.9083 4.76558 18.725 4.58225C18.5417 4.39892 18.3 4.30725 18 4.30725H9.175L10.35 8.35725H12.325V7.30725H13.35V8.35725H17V9.38225H15.725C15.5583 10.0156 15.3083 10.6323 14.975 11.2323C14.6417 11.8323 14.25 12.3906 13.8 12.9073L16.525 15.5823L15.8 16.3073L13.1 13.6073L12.2 14.5323L13 17.3073L11 19.3073Z" fill="#0F4C83"/>
</svg>
